<?xml version="1.0" encoding="utf-8"?>
<!-- Generator: Adobe Illustrator 26.1.0, SVG Export Plug-In . SVG Version: 6.00 Build 0)  -->
<svg version="1.1" id="Ebene_1" xmlns="http://www.w3.org/2000/svg" xmlns:xlink="http://www.w3.org/1999/xlink" x="0px" y="0px"
	 viewBox="0 0 700 700" style="enable-background:new 0 0 700 700;" xml:space="preserve">
<style type="text/css">
	.st0{fill-rule:evenodd;clip-rule:evenodd;fill:#888888;}
</style>
<g>
	<path class="st0" d="M485.1,555.7l19.6-120.2c0.8-4.6,4.7-7.9,9.2-7.9c0.5,0,1,0,1.5,0.1c5.1,0.8,8.6,5.7,7.7,10.7l-19.6,120.2
		c-0.8,5.1-5.7,8.6-10.7,7.7c-2.5-0.4-4.6-1.7-6.1-3.8C485.3,560.6,484.7,558.1,485.1,555.7L485.1,555.7z M489.3,588
		c1.7,0.3,3.4,0.4,5,0.4c15,0,28.3-10.9,30.8-26.2L544.8,442c2.8-17-8.8-33.1-25.8-35.9c-17-2.8-33.1,8.8-35.9,25.8l-19.6,120.2
		c-1.3,8.2,0.6,16.5,5.5,23.3C473.8,582.2,481.1,586.7,489.3,588L489.3,588z M388.1,556.5l8.6-121.5c0.4-4.9,4.5-8.7,9.3-8.7
		c0.2,0,0.4,0,0.7,0c5.1,0.4,9,4.8,8.7,10l-8.6,121.5c-0.4,5.2-4.8,9-10,8.7c-2.5-0.2-4.7-1.3-6.4-3.2
		C388.8,561.4,388,559,388.1,556.5L388.1,556.5z M395.3,588.3c0.8,0.1,1.5,0.1,2.2,0.1c16.2,0,30-12.6,31.1-29l8.6-121.5
		c1.2-17.2-11.8-32.1-29-33.4c-17.2-1.2-32.1,11.8-33.4,29L366.3,555c-0.6,8.3,2.1,16.4,7.6,22.7C379.4,583.9,387,587.7,395.3,588.3
		L395.3,588.3z M178.4,431.5c1.5-2,3.6-3.4,6.1-3.8c5.1-0.8,9.9,2.6,10.7,7.7l19.6,120.2c0.8,5.1-2.6,9.9-7.7,10.8
		c-5.1,0.8-9.9-2.6-10.8-7.7l-19.6-120.2C176.3,436,176.9,433.5,178.4,431.5L178.4,431.5z M174.8,562.2
		c2.5,15.3,15.8,26.2,30.8,26.2c1.7,0,3.4-0.1,5.1-0.4c17-2.8,28.6-18.9,25.8-35.9l-19.6-120.2c-2.8-17-18.9-28.6-35.9-25.8
		c-8.2,1.3-15.4,5.8-20.3,12.6c-4.9,6.8-6.8,15-5.5,23.3L174.8,562.2z M293.2,426.3c2.5-0.2,4.9,0.6,6.8,2.3c1.9,1.7,3,3.9,3.2,6.4
		l8.6,121.5c0.4,5.1-3.5,9.6-8.7,10c-5.2,0.4-9.6-3.5-10-8.7l-8.6-121.5C284.2,431.2,288.1,426.7,293.2,426.3L293.2,426.3z
		 M271.3,559.4c1.2,16.4,14.9,29,31.1,29c0.7,0,1.5,0,2.2-0.1c17.2-1.2,30.2-16.2,29-33.4L325,433.5c-1.2-17.2-16.2-30.2-33.4-29
		c-17.2,1.2-30.2,16.2-29,33.4L271.3,559.4z M678.1,336.6c0,5.4-4.4,9.8-9.8,9.8l-636.7,0c-5.4,0-9.8-4.4-9.8-9.8v-35.4
		c0-5.4,4.4-9.8,9.8-9.8h636.7c5.4,0,9.8,4.4,9.8,9.8L678.1,336.6L678.1,336.6z M579.8,587.3l43.8-219l-544.5,0l43.8,219
		c5.5,27.5,29,46.8,57.1,46.8h342.8C550.8,634.1,574.2,614.8,579.8,587.3L579.8,587.3z M228.7,73.8c4.4-7.6,14.1-10.2,21.6-5.8
		c3.7,2.1,6.2,5.5,7.4,9.6c1.1,4.1,0.5,8.4-1.6,12L152.4,269.5h-36.6L228.7,73.8z M443.8,89.7c-2.1-3.6-2.7-7.9-1.5-12
		c1.1-4.1,3.7-7.5,7.4-9.6c7.6-4.4,17.3-1.8,21.6,5.8l113,195.7h-36.6L443.8,89.7z M668.3,269.5h-59.4c-0.7-1.8-1.6-3.6-2.6-5.3
		L490.2,62.9c-10.4-18-33.5-24.2-51.5-13.8c-8.7,5-14.9,13.2-17.5,22.9c-2.6,9.8-1.3,19.9,3.7,28.6l97.5,168.9l-344.7,0l97.5-168.9
		c5-8.7,6.3-18.9,3.7-28.6c-2.6-9.8-8.8-17.9-17.5-22.9c-18-10.4-41.1-4.2-51.5,13.8L93.6,264.2c-1,1.7-1.8,3.5-2.5,5.3H31.6
		C14.2,269.5,0,283.7,0,301.2v35.4c0,17.5,14.2,31.7,31.7,31.7h25.1l44.7,223.3c7.6,37.9,39.9,64.4,78.5,64.4h342.8
		c38.6,0,70.9-26.5,78.5-64.4l44.6-223.3h22.5c17.5,0,31.7-14.2,31.7-31.7v-35.4C700,283.7,685.8,269.5,668.3,269.5L668.3,269.5z"/>
</g>
</svg>
