<?xml version="1.0" encoding="utf-8"?>
<!-- Generator: Adobe Illustrator 26.1.0, SVG Export Plug-In . SVG Version: 6.00 Build 0)  -->
<svg version="1.1" id="Ebene_1" xmlns="http://www.w3.org/2000/svg" xmlns:xlink="http://www.w3.org/1999/xlink" x="0px" y="0px"
	 viewBox="0 0 700 700" style="enable-background:new 0 0 700 700;" xml:space="preserve">
<style type="text/css">
	.st0{fill:#FFFFFF;}
</style>
<g>
	<path class="st0" d="M52.5,43.7C23.5,43.7,0,67.3,0,96.3c0,29,23.5,52.5,52.5,52.5h595c29,0,52.5-23.5,52.5-52.5
		s-23.5-52.5-52.5-52.5H52.5z M52.5,297.5C23.5,297.5,0,321,0,350c0,29,23.5,52.5,52.5,52.5h595c29,0,52.5-23.5,52.5-52.5
		s-23.5-52.5-52.5-52.5L52.5,297.5z M52.5,551.2c-29,0-52.5,23.5-52.5,52.5c0,29,23.5,52.5,52.5,52.5h595c29,0,52.5-23.5,52.5-52.5
		s-23.5-52.5-52.5-52.5H52.5z"/>
</g>
</svg>
