<?xml version="1.0" encoding="utf-8"?>
<!-- Generator: Adobe Illustrator 26.0.3, SVG Export Plug-In . SVG Version: 6.00 Build 0)  -->
<svg version="1.1" id="Ebene_1" xmlns="http://www.w3.org/2000/svg" xmlns:xlink="http://www.w3.org/1999/xlink" x="0px" y="0px"
	 viewBox="0 0 700 700" style="enable-background:new 0 0 700 700;" xml:space="preserve">
<style type="text/css">
	.st0{fill-rule:evenodd;clip-rule:evenodd;}
</style>
<path class="st0" d="M424.6,350L684.5,90.1c20.6-20.6,20.6-54,0-74.6c-20.6-20.6-54-20.6-74.6,0L350,275.4L90.1,15.5
	c-20.6-20.6-54-20.6-74.6,0s-20.6,54,0,74.6L275.4,350L15.5,609.9c-20.6,20.6-20.6,54,0,74.6C25.7,694.9,39.3,700,52.8,700
	s27-5.2,37.3-15.4L350,424.6l259.9,259.9c10.3,10.3,23.8,15.4,37.3,15.4c13.5,0,27-5.2,37.3-15.4c20.6-20.6,20.6-54,0-74.6
	L424.6,350"/>
</svg>
