<?xml version="1.0" encoding="utf-8"?>
<!-- Generator: Adobe Illustrator 26.1.0, SVG Export Plug-In . SVG Version: 6.00 Build 0)  -->
<svg version="1.1" id="Ebene_1" xmlns="http://www.w3.org/2000/svg" xmlns:xlink="http://www.w3.org/1999/xlink" x="0px" y="0px"
	 viewBox="0 0 67.7 25.2" style="enable-background:new 0 0 67.7 25.2;" xml:space="preserve">
<style type="text/css">
	.st0{fill:#FFFFFF;}
</style>
<g>
	<path class="st0" d="M20.2,4.1c-0.7-0.2-1.4,0.1-1.6,0.8c-0.1,0.2-0.1,0.5,0,0.7L15.1,7l-0.4-3.9c0.5-0.1,0.9-0.4,1-0.8
		c0.2-0.7-0.1-1.4-0.8-1.6c0,0,0,0,0,0l0,0c-0.7-0.2-1.4,0.1-1.6,0.8c-0.2,0.5,0,1,0.3,1.3l-2.7,2.8L9.1,2.3
		c0.2-0.1,0.3-0.3,0.4-0.6C9.7,1,9.4,0.3,8.7,0.1S7.3,0.2,7,0.9s0.1,1.4,0.8,1.6c0,0,0.1,0,0.1,0L7.4,7.2c0,0.1,0,0.2,0.1,0.3
		c0.1,0.1,0.2,0.1,0.3,0.2c0.1,0,0.2,0,0.3-0.1c0.1-0.1,0.1-0.2,0.2-0.3l0.4-3.8l1.6,3c0.1,0.1,0.2,0.2,0.3,0.2c0.1,0,0.3,0,0.4-0.1
		l2.8-3l0.4,4.1c0,0.1,0.1,0.3,0.2,0.3c0.1,0.1,0.3,0.1,0.4,0L18,6.7L16,10c-0.1,0.1-0.1,0.2-0.1,0.3c0,0.1,0.1,0.2,0.2,0.3
		c0.2,0.1,0.5,0.1,0.6-0.1l2.5-4c0,0,0.1,0,0.1,0.1C20,6.7,20.7,6.4,21,5.7C21.2,5,20.8,4.3,20.2,4.1z M8.7,1.4
		c0,0.1-0.1,0.2-0.3,0.3c0,0,0,0-0.1,0c-0.1,0-0.1,0-0.2,0C7.9,1.6,7.8,1.4,7.9,1.1c0.1-0.2,0.3-0.3,0.5-0.3c0,0,0,0,0,0
		C8.6,1,8.7,1.2,8.7,1.4z M14.4,2.2c-0.2-0.1-0.3-0.3-0.3-0.5c0.1-0.2,0.3-0.3,0.5-0.3C14.9,1.5,15,1.8,14.9,2S14.6,2.3,14.4,2.2z
		 M20.1,5.4c-0.1,0.2-0.3,0.3-0.5,0.3c-0.1,0-0.1-0.1-0.2-0.1l0,0c0,0,0-0.1-0.1-0.1l0,0c-0.1-0.1-0.1-0.2,0-0.4
		c0.1-0.2,0.3-0.3,0.5-0.3l0,0c0,0,0,0,0,0C20.1,5,20.2,5.2,20.1,5.4z"/>
	<path class="st0" d="M17.6,16.7c0-0.6-0.2-1.1-0.6-1.4c-0.1-0.1-0.2-0.2-0.3-0.2l0,0c0.2-0.3,0.3-0.6,0.3-1c0-1.8-1-3.2-2.4-4.2
		c-1.6-1.1-3.9-1.7-5.9-1.7c-2,0-4.3,0.6-5.9,1.7c-1.4,1-2.4,2.4-2.4,4.2c0,0.4,0.1,0.7,0.3,1c-0.1,0.1-0.2,0.1-0.3,0.2
		C0.2,15.6,0,16.1,0,16.7c0,0.5,0.2,1,0.6,1.4l0,0c0.1,0.1,0.1,0.1,0.2,0.2c-0.2,0.2-0.3,0.5-0.3,0.8v1.3c0,0.7,0.3,1.3,0.7,1.8
		c0.5,0.5,1.1,0.7,1.8,0.7h11.5c0.7,0,1.3-0.3,1.8-0.7c0.5-0.5,0.7-1.1,0.7-1.8v-1.3c0-0.3-0.1-0.6-0.3-0.8c0.1-0.1,0.1-0.1,0.2-0.2
		C17.4,17.7,17.6,17.2,17.6,16.7z M3.4,10.6c1.5-1,3.5-1.5,5.4-1.5c1.9,0,3.9,0.5,5.4,1.5c1.2,0.8,2,2,2,3.5c0,0.2-0.1,0.3-0.2,0.4
		c-0.1,0.1-0.2,0.2-0.4,0.2H2c-0.2,0-0.3-0.1-0.4-0.2c-0.1-0.1-0.2-0.2-0.2-0.4C1.4,12.6,2.2,11.4,3.4,10.6z M16.1,20.3
		c0,0.4-0.2,0.8-0.5,1.1h0c-0.3,0.3-0.7,0.5-1.1,0.5H3.1c-0.4,0-0.8-0.2-1.1-0.5c-0.3-0.3-0.5-0.7-0.5-1.1v-1.3c0-0.1,0-0.2,0.1-0.3
		c0.1-0.1,0.2-0.1,0.3-0.1h14h0c0.1,0,0.2,0,0.3,0.1l0,0c0.1,0.1,0.1,0.2,0.1,0.2V20.3z M16.3,17.4c-0.2,0.2-0.5,0.3-0.8,0.3H2
		c-0.3,0-0.6-0.1-0.8-0.3l0,0C1,17.2,0.9,17,0.9,16.7c0-0.3,0.1-0.6,0.3-0.8c0.2-0.2,0.5-0.3,0.8-0.3h13.5c0.3,0,0.6,0.1,0.8,0.3v0
		c0.2,0.2,0.3,0.5,0.3,0.8C16.7,17,16.5,17.2,16.3,17.4z"/>
	<path class="st0" d="M24.3,17.1h-1.1l0.1-0.4c0.1-0.4,0.2-0.7,0.5-1c0.2-0.2,0.6-0.3,1-0.4l0.3,0c0.1,0,0.2-0.1,0.3-0.2
		c0.1-0.1,0.1-0.2,0.1-0.3s0-0.2-0.1-0.3s-0.2-0.1-0.4-0.1l-0.4,0c-0.8,0.1-1.4,0.3-1.8,0.7c-0.4,0.4-0.7,0.9-0.8,1.6L22,17.1h-0.7
		c-0.2,0-0.3,0-0.4,0.1s-0.1,0.2-0.1,0.4c0,0.2,0.2,0.4,0.5,0.4h0.6l-0.7,4.3c0,0.2,0,0.4,0.1,0.5s0.2,0.2,0.4,0.2
		c0.4,0,0.6-0.2,0.7-0.6l0.7-4.4h1.2c0.2,0,0.3,0,0.4-0.1s0.2-0.2,0.2-0.4C24.8,17.2,24.7,17.1,24.3,17.1z"/>
	<path class="st0" d="M28,17c-0.6,0-1.1,0.1-1.6,0.4s-0.9,0.7-1.1,1.2s-0.4,1.1-0.4,1.8c0,0.8,0.2,1.4,0.7,1.9
		c0.5,0.5,1.1,0.7,1.9,0.7c0.6,0,1.1-0.1,1.6-0.4s0.9-0.7,1.1-1.2c0.3-0.5,0.4-1.1,0.4-1.8c0-0.8-0.2-1.4-0.7-1.9
		C29.5,17.2,28.8,17,28,17z M29.2,20.8c-0.1,0.4-0.4,0.7-0.6,0.9c-0.3,0.2-0.6,0.3-1,0.3c-0.4,0-0.8-0.1-1.1-0.4
		c-0.3-0.3-0.4-0.7-0.4-1.2c0-0.5,0.1-0.9,0.2-1.3c0.1-0.4,0.4-0.7,0.6-0.9s0.6-0.3,1-0.3c0.4,0,0.8,0.1,1.1,0.4
		c0.3,0.3,0.4,0.7,0.4,1.2C29.4,20,29.3,20.5,29.2,20.8z"/>
	<path class="st0" d="M34.8,17c-0.6,0-1.1,0.1-1.6,0.4s-0.9,0.7-1.1,1.2s-0.4,1.1-0.4,1.8c0,0.8,0.2,1.4,0.7,1.9
		c0.5,0.5,1.1,0.7,1.9,0.7c0.6,0,1.1-0.1,1.6-0.4s0.9-0.7,1.1-1.2c0.3-0.5,0.4-1.1,0.4-1.8c0-0.8-0.2-1.4-0.7-1.9
		C36.2,17.2,35.6,17,34.8,17z M36,20.8c-0.1,0.4-0.4,0.7-0.6,0.9c-0.3,0.2-0.6,0.3-1,0.3c-0.4,0-0.8-0.1-1.1-0.4
		c-0.3-0.3-0.4-0.7-0.4-1.2c0-0.5,0.1-0.9,0.2-1.3c0.1-0.4,0.4-0.7,0.6-0.9s0.6-0.3,1-0.3c0.4,0,0.8,0.1,1.1,0.4
		c0.3,0.3,0.4,0.7,0.4,1.2C36.2,20,36.1,20.5,36,20.8z"/>
	<path class="st0" d="M44.4,14.4c-0.4,0-0.6,0.2-0.7,0.6l-0.5,3.2c-0.2-0.4-0.4-0.7-0.8-0.9c-0.3-0.2-0.7-0.3-1.2-0.3
		c-0.6,0-1.1,0.2-1.6,0.5s-0.8,0.8-1,1.3c-0.2,0.5-0.3,1.1-0.3,1.8c0,0.8,0.2,1.4,0.6,1.8c0.4,0.5,0.9,0.7,1.6,0.7
		c0.4,0,0.8-0.1,1.2-0.3c0.3-0.2,0.6-0.5,0.9-0.8l-0.1,0.3c0,0.2,0,0.4,0.1,0.5s0.2,0.2,0.4,0.2c0.4,0,0.6-0.2,0.7-0.6l1.2-7.3
		C45,14.6,44.8,14.4,44.4,14.4z M42.7,20.8c-0.1,0.4-0.4,0.7-0.6,0.9c-0.3,0.2-0.6,0.3-1,0.3c-0.5,0-0.8-0.1-1.1-0.4
		c-0.3-0.3-0.4-0.7-0.4-1.2c0-0.5,0.1-0.9,0.2-1.3c0.1-0.4,0.4-0.7,0.6-0.9c0.3-0.2,0.6-0.3,1-0.3c0.4,0,0.8,0.1,1.1,0.4
		S43,19,43,19.6C43,20,42.9,20.5,42.7,20.8z"/>
	<path class="st0" d="M50.5,17c-0.1,0-0.3,0-0.4,0.1s-0.2,0.1-0.4,0.3l-2.6,2.3h0l0.7-4.5c0-0.2,0-0.4-0.1-0.5
		c-0.1-0.1-0.2-0.2-0.4-0.2c-0.4,0-0.6,0.2-0.7,0.6l-1.2,7.4c0,0.2,0,0.4,0.1,0.5C45.6,23,45.8,23,46,23c0.4,0,0.6-0.2,0.7-0.6
		l0.3-2.2h0l2.1,2.4c0.1,0.2,0.2,0.3,0.3,0.3c0.1,0.1,0.2,0.1,0.4,0.1c0.2,0,0.3,0,0.4-0.1c0.1-0.1,0.1-0.2,0.1-0.3
		c0-0.1,0-0.3-0.2-0.4L48.3,20l2.4-2.1c0.1-0.1,0.2-0.2,0.2-0.4c0-0.1,0-0.2-0.1-0.3C50.8,17.1,50.6,17,50.5,17z"/>
	<path class="st0" d="M53.1,17c-0.4,0-0.6,0.2-0.7,0.6l-0.8,4.7c0,0.2,0,0.4,0.1,0.5S52,23,52.2,23c0.4,0,0.6-0.2,0.7-0.6l0.8-4.7
		c0-0.2,0-0.4-0.1-0.5S53.3,17,53.1,17z"/>
	<path class="st0" d="M53.5,14.4c-0.5,0-0.8,0.2-0.9,0.7c0,0.4,0.2,0.6,0.6,0.6c0.5,0,0.8-0.2,0.9-0.7c0-0.2,0-0.4-0.1-0.5
		C53.9,14.5,53.8,14.4,53.5,14.4z"/>
	<path class="st0" d="M58.5,17c-0.5,0-0.9,0.1-1.2,0.3s-0.6,0.5-0.9,0.8l0.1-0.4c0-0.2,0-0.4-0.1-0.5C56.3,17.1,56.2,17,56,17
		c-0.4,0-0.6,0.2-0.7,0.6l-0.7,4.7c0,0.2,0,0.4,0.1,0.5c0.1,0.1,0.2,0.2,0.4,0.2c0.4,0,0.6-0.2,0.7-0.6l0.4-2.6
		c0.1-0.6,0.3-1,0.6-1.3c0.3-0.3,0.7-0.5,1.3-0.5c0.8,0,1.1,0.5,1,1.5l-0.5,2.9c0,0.2,0,0.4,0.1,0.5s0.2,0.2,0.4,0.2
		c0.4,0,0.6-0.2,0.7-0.6l0.5-3c0.1-0.8,0-1.4-0.3-1.8S59.2,17,58.5,17z"/>
	<path class="st0" d="M67.6,17.2c-0.1-0.1-0.2-0.2-0.4-0.2c-0.4,0-0.6,0.2-0.7,0.6l-0.1,0.6c-0.2-0.4-0.4-0.7-0.8-0.9
		c-0.3-0.2-0.7-0.3-1.2-0.3c-0.6,0-1.1,0.2-1.6,0.5c-0.4,0.3-0.8,0.7-1,1.3c-0.2,0.5-0.4,1.1-0.4,1.7c0,0.7,0.2,1.3,0.6,1.8
		c0.4,0.4,1,0.6,1.7,0.6c0.4,0,0.8-0.1,1.2-0.3c0.3-0.2,0.6-0.4,0.8-0.8l-0.2,1c-0.1,0.5-0.3,0.9-0.6,1.1c-0.3,0.2-0.7,0.4-1.2,0.4
		c-0.3,0-0.7,0-0.9-0.1c-0.3-0.1-0.6-0.2-0.8-0.4c-0.2-0.1-0.3-0.1-0.4-0.1c-0.1,0-0.2,0.1-0.3,0.2c-0.1,0.1-0.1,0.2,0,0.3
		s0.1,0.2,0.2,0.3c0.3,0.2,0.7,0.4,1.1,0.5c0.4,0.1,0.9,0.2,1.3,0.2c1.6,0,2.6-0.8,2.8-2.5l0.8-5C67.7,17.5,67.7,17.3,67.6,17.2z
		 M65.9,20.6c-0.1,0.4-0.4,0.7-0.7,0.9c-0.3,0.2-0.6,0.3-1.1,0.3c-0.5,0-0.8-0.1-1.1-0.4c-0.3-0.3-0.4-0.6-0.4-1.1
		c0-0.4,0.1-0.8,0.2-1.2c0.1-0.4,0.4-0.7,0.7-0.9c0.3-0.2,0.6-0.3,1-0.3c0.5,0,0.8,0.1,1.1,0.4c0.3,0.3,0.4,0.6,0.4,1.1
		C66.1,19.9,66.1,20.3,65.9,20.6z"/>
</g>
</svg>
