<?xml version="1.0" encoding="utf-8"?>
<!-- Generator: Adobe Illustrator 26.1.0, SVG Export Plug-In . SVG Version: 6.00 Build 0)  -->
<svg version="1.1" id="Ebene_1" xmlns="http://www.w3.org/2000/svg" xmlns:xlink="http://www.w3.org/1999/xlink" x="0px" y="0px"
	 viewBox="0 0 700 700" style="enable-background:new 0 0 700 700;" xml:space="preserve">
<path d="M262.1,525.6c63.1,0,122.6-22.3,170-63l230.5,231.1c4.3,4.3,9.9,6.4,15.5,6.4c5.6,0,11.2-2.1,15.4-6.4
	c8.6-8.6,8.6-22.4,0-30.9L462.9,431.5C549.3,328.4,544.2,174,447.5,77C398,27.3,332.1-0.1,262.1-0.1c-70.1,0-135.9,27.4-185.4,77
	c-102.2,102.5-102.2,269.2,0,371.7C126.2,498.3,192,525.6,262.1,525.6L262.1,525.6z M107.6,107.8c41.3-41.4,96.1-64.2,154.4-64.2
	s113.2,22.8,154.4,64.2c85.2,85.4,85.2,224.4,0,309.8c-41.3,41.4-96.1,64.2-154.4,64.2s-113.2-22.8-154.4-64.2
	C22.4,332.3,22.4,193.3,107.6,107.8L107.6,107.8z"/>
</svg>
