<?xml version="1.0" encoding="utf-8"?>
<!-- Generator: Adobe Illustrator 26.1.0, SVG Export Plug-In . SVG Version: 6.00 Build 0)  -->
<svg version="1.1" id="Ebene_1" xmlns="http://www.w3.org/2000/svg" xmlns:xlink="http://www.w3.org/1999/xlink" x="0px" y="0px"
	 viewBox="0 0 700 700" style="enable-background:new 0 0 700 700;" xml:space="preserve">
<g>
	<path d="M537.8,427.2l151-124.5c21.4-17.7,10.3-52.3-17.7-53.8l-194.4-11.8c-11.8-0.7-22.1-8.1-26.5-19.1L378.7,35.4
		c-10.3-25.8-46.4-25.8-56.7,0l-71.4,181.9c-4.4,11-14.7,18.4-26.5,19.1L28.9,248.3c-28,1.5-39,36.1-17.7,53.8l151,123.7
		c8.8,7.4,13.3,19.9,10.3,30.9L123.1,646c-6.6,26.5,22.1,47.9,45.7,33.1l164.2-105.3c10.3-6.6,22.8-6.6,32.4,0l165,105.3
		c23.6,14.7,52.3-6.6,45.7-33.1l-49.3-188.6C524.6,446.4,528.2,434.6,537.8,427.2L537.8,427.2z"/>
</g>
</svg>
